<svg width="379" height="89" viewBox="0 0 379 89" fill="none" xmlns="http://www.w3.org/2000/svg">
<g clip-path="url(#clip0_3_2)">
<path d="M136.769 38.6836C136.769 40.6266 136.333 42.3708 135.46 43.916C134.588 45.446 133.334 46.6546 131.697 47.542C130.06 48.4141 128.178 48.8501 126.051 48.8501H118.455V62H113.36V28.54H126.051C127.627 28.54 129.096 28.8001 130.458 29.3203C131.819 29.8252 132.967 30.5366 133.9 31.4546C134.833 32.3573 135.545 33.4206 136.034 34.6445C136.524 35.8532 136.769 37.1995 136.769 38.6836ZM131.697 38.6836C131.697 36.9395 131.154 35.5701 130.067 34.5757C128.996 33.5812 127.566 33.084 125.776 33.084H118.455V44.2373H125.776C127.581 44.2373 129.019 43.7477 130.09 42.7686C131.161 41.7741 131.697 40.4124 131.697 38.6836ZM164.124 62H142.919V28.54H148.014V57.4331H164.124V62ZM194.555 62H189.139L186.844 55.2759H173.625L171.33 62H165.914L178.192 28.54H182.277L194.555 62ZM185.421 50.9614L180.349 36.1133L175.14 50.9614H185.421ZM220.258 28.54L210.252 48.2305V62H205.157V48.2305L195.151 28.54H200.705L207.705 43.2505L214.704 28.54H220.258ZM245.387 33.084H236.185V62H231.113V33.084H221.887V28.54H245.387V33.084ZM275.841 62H270.425L268.13 55.2759H254.911L252.616 62H247.2L259.478 28.54H263.563L275.841 62ZM266.707 50.9614L261.635 36.1133L256.426 50.9614H266.707ZM301.957 62H280.568V28.54H301.957V33.084H285.663V42.8604H299.57V47.3813H285.663V57.4331H301.957V62ZM332.434 50.709C332.434 52.9733 331.913 54.9852 330.873 56.7446C329.833 58.5041 328.395 59.8657 326.559 60.8296C324.738 61.7935 322.688 62.2754 320.408 62.2754C318.144 62.2754 316.101 61.7935 314.281 60.8296C312.46 59.8657 311.03 58.5041 309.989 56.7446C308.949 54.9852 308.429 52.9733 308.429 50.709V28.54H313.5V50.4795C313.5 51.9482 313.784 53.2334 314.35 54.335C314.916 55.4212 315.719 56.2627 316.759 56.8594C317.8 57.4408 319.016 57.7314 320.408 57.7314C321.8 57.7314 323.017 57.4408 324.057 56.8594C325.113 56.2627 325.924 55.4212 326.49 54.335C327.071 53.2487 327.362 51.9635 327.362 50.4795V28.54H332.434V50.709Z" fill="#C5C3C0"/>
<path d="M44.238 0.600998C21 0.600998 1.96301 18.519 0.154007 41.29L23.864 51.093C25.873 49.719 28.3 48.914 30.911 48.914C31.145 48.914 31.378 48.922 31.609 48.935L42.153 33.652C42.153 33.579 42.152 33.508 42.152 33.436C42.152 24.237 49.635 16.753 58.835 16.753C68.034 16.753 75.517 24.237 75.517 33.436C75.517 42.635 68.034 50.12 58.835 50.12C58.708 50.12 58.582 50.117 58.456 50.114L43.418 60.844C43.426 61.039 43.433 61.238 43.433 61.436C43.433 68.342 37.816 73.958 30.911 73.958C24.85 73.958 19.782 69.632 18.634 63.903L1.67801 56.893C6.92801 75.461 23.987 89.074 44.238 89.074C68.67 89.074 88.475 69.268 88.475 44.839C88.475 20.406 68.669 0.600998 44.238 0.600998Z" fill="#C5C3C0"/>
<path d="M27.875 67.723L22.441 65.478C23.404 67.483 25.07 69.162 27.282 70.084C32.064 72.076 37.577 69.807 39.57 65.021C40.535 62.707 40.541 60.152 39.584 57.832C38.629 55.511 36.827 53.701 34.51 52.735C32.211 51.778 29.748 51.813 27.584 52.63L33.197 54.951C36.724 56.421 38.392 60.471 36.922 63.998C35.455 67.526 31.402 69.194 27.875 67.723Z" fill="#C5C3C0"/>
<path d="M69.95 33.436C69.95 27.307 64.964 22.32 58.834 22.32C52.705 22.32 47.718 27.307 47.718 33.436C47.718 39.566 52.705 44.551 58.834 44.551C64.964 44.55 69.95 39.565 69.95 33.436ZM50.502 33.417C50.502 28.805 54.241 25.067 58.853 25.067C63.465 25.067 67.204 28.805 67.204 33.417C67.204 38.029 63.465 41.767 58.853 41.767C54.241 41.767 50.502 38.028 50.502 33.417Z" fill="#C5C3C0"/>
<path d="M345.232 28.636C345.232 31.5 343.086 33.285 340.623 33.285C338.151 33.285 336 31.5 336 28.636C336 25.773 338.151 24 340.623 24C343.087 24 345.232 25.773 345.232 28.636ZM336.775 28.636C336.775 31.032 338.501 32.537 340.623 32.537C342.737 32.537 344.456 31.032 344.456 28.636C344.456 26.233 342.737 24.751 340.623 24.751C338.507 24.751 336.775 26.251 336.775 28.636ZM340.687 26.267C341.882 26.267 342.284 26.899 342.284 27.582C342.284 28.208 341.913 28.628 341.461 28.842L342.532 30.849H341.655L340.752 29.07H339.821V30.849H339.091V26.267H340.687ZM339.828 28.399H340.642C341.169 28.399 341.48 28.068 341.48 27.652C341.48 27.232 341.257 26.962 340.64 26.962H339.827V28.399H339.828Z" fill="#C5C3C0"/>
</g>
<defs>
<clipPath id="clip0_3_2">
<rect width="379" height="89" fill="white"/>
</clipPath>
</defs>
</svg>
